<svg width="80" height="80" viewBox="0 0 80 80" fill="none" xmlns="http://www.w3.org/2000/svg">
<path d="M59.7509 34.8281L58.2423 25.024C58.176 24.5929 57.9576 24.1998 57.6267 23.9157C57.2957 23.6316 56.874 23.4754 56.4378 23.4752C46.4528 23.4752 41.3352 18.5731 41.2914 18.5311C40.9492 18.1909 40.4863 18 40.0038 18C39.5213 18 39.0584 18.1909 38.7162 18.5311C38.665 18.5731 33.5474 23.4752 23.5625 23.4752C23.1263 23.4754 22.7046 23.6316 22.3736 23.9157C22.0427 24.1998 21.8243 24.5929 21.758 25.024L20.2494 34.8281C19.5727 39.2818 20.281 43.8358 22.2783 47.8736C24.2756 51.9113 27.4655 55.2378 31.416 57.4025L39.1235 61.6033C39.3918 61.7497 39.6926 61.8264 39.9983 61.8264C40.304 61.8264 40.6048 61.7497 40.8732 61.6033L48.5806 57.4025C52.5318 55.2383 55.7224 51.9121 57.7204 47.8743C59.7184 43.8365 60.4272 39.2822 59.7509 34.8281ZM46.8346 54.1881L40.0001 57.9231L33.1657 54.1954C29.8722 52.3924 27.2123 49.6209 25.5462 46.2561C23.8802 42.8912 23.2884 39.0957 23.851 35.3834L25.1295 27.0897C30.4621 26.9703 35.6385 25.267 40.0001 22.1967C44.36 25.2666 49.5344 26.9705 54.8653 27.0915L56.1438 35.3834C56.7069 39.0951 56.1159 42.8902 54.4509 46.255C52.7858 49.6198 50.1271 52.3916 46.8346 54.1954V54.1881Z" fill="#B3B0B0"/>
<path d="M46.0143 33.1423L36.3471 42.8095L33.9856 40.448C33.8171 40.2735 33.6156 40.1344 33.3927 40.0387C33.1699 39.9429 32.9302 39.8926 32.6877 39.8905C32.4452 39.8883 32.2047 39.9346 31.9803 40.0264C31.7558 40.1182 31.5519 40.2538 31.3804 40.4253C31.2089 40.5968 31.0733 40.8007 30.9815 41.0252C30.8896 41.2497 30.8434 41.4902 30.8455 41.7327C30.8476 41.9752 30.898 42.2148 30.9937 42.4377C31.0895 42.6605 31.2286 42.862 31.403 43.0305L35.0559 46.6833C35.3984 47.0257 35.8628 47.2181 36.3471 47.2181C36.8314 47.2181 37.2959 47.0257 37.6384 46.6833L48.5968 35.7249C48.9295 35.3804 49.1136 34.9191 49.1095 34.4402C49.1053 33.9613 48.9132 33.5032 48.5746 33.1646C48.236 32.8259 47.7779 32.6339 47.299 32.6297C46.8201 32.6255 46.3588 32.8096 46.0143 33.1423Z" fill="#B3B0B0"/>
<circle cx="40" cy="40" r="40" fill="#FF1200" fill-opacity="0.1"/>
</svg>
