<svg width="80" height="80" viewBox="0 0 80 80" fill="none" xmlns="http://www.w3.org/2000/svg">
<circle cx="40" cy="40" r="40" fill="#FF1200" fill-opacity="0.1"/>
<path d="M28.4735 58.7249C28.2065 58.7249 27.9449 58.593 27.7903 58.352L20.1285 46.415C19.9166 46.0821 19.9707 45.6475 20.2615 45.3805C21.8353 43.9331 23.3908 42.4901 24.9333 41.0567C28.4972 37.7458 31.8644 34.6186 35.3905 31.5065C38.9987 28.322 42.7237 25.1905 46.3254 22.1628C47.9057 20.8354 49.4796 19.5134 51.0362 18.1924C51.3291 17.9438 51.7593 17.9352 52.0598 18.1719C60.0999 24.4782 60.4145 24.7246 59.794 29.7154C59.7432 30.1208 59.3995 30.4266 58.9898 30.4266H56.2896L56.8582 33.4241C56.9036 33.663 56.8398 33.9062 56.6874 34.0922C56.5328 34.2781 56.3047 34.3862 56.0626 34.3862H52.8889V37.3815C52.8889 37.7674 52.6165 38.1003 52.2371 38.176L49.5326 38.7208L49.3023 41.3562C49.2829 41.5734 49.1791 41.7745 49.0105 41.9128C48.8429 42.0523 48.6267 42.1139 48.4084 42.0944L45.6347 41.8026L46.2486 46.2767C46.2843 46.5415 46.1881 46.8052 45.9924 46.9857C45.7946 47.1663 45.5212 47.2376 45.2617 47.1771L42.4123 46.5112L42.1475 49.6503C42.114 50.0697 41.7627 50.3929 41.34 50.3929H38.4085C38.4063 50.4243 38.4042 50.4578 38.402 50.488C38.3566 51.1161 38.3134 51.7268 38.2799 52.3127C38.2637 52.5754 38.122 52.8132 37.9004 52.9526L28.895 58.5984C28.7686 58.6849 28.6205 58.7249 28.4735 58.7249ZM21.8624 46.1123L28.7221 56.8008L36.6952 51.8025C36.7244 51.3388 36.7601 50.8631 36.7936 50.3767C36.9103 48.7272 37.0335 47.0203 37.026 45.3006C37.0227 44.6163 36.7006 43.7559 36.2401 43.2089C35.0673 41.8166 33.7745 40.4709 32.5238 39.1683C32.0287 38.6505 31.5336 38.136 31.0429 37.615C29.3955 39.1272 27.7384 40.6644 26.0403 42.2436C24.6566 43.5278 23.2665 44.8174 21.8624 46.1123ZM38.5274 48.7747H40.6028L40.885 45.4422C40.9066 45.2076 41.0255 44.9925 41.2179 44.8552C41.4081 44.7179 41.647 44.666 41.8773 44.7222L44.4899 45.3319L43.8943 41.0027C43.8608 40.7552 43.9419 40.5076 44.1148 40.3282C44.2889 40.1487 44.5375 40.0644 44.7818 40.0839L47.7652 40.3963L47.976 37.9782C48.0052 37.6193 48.2689 37.3253 48.6235 37.254L51.2718 36.7189V33.5755C51.2718 33.128 51.635 32.7648 52.0825 32.7648H55.0865L54.5168 29.7651C54.4725 29.5284 54.5363 29.283 54.6898 29.0971C54.8433 28.9112 55.0725 28.8041 55.3135 28.8041H58.2742C58.6569 25.4943 58.245 25.0846 51.5831 19.856C50.1887 21.0364 48.7824 22.2179 47.3717 23.4037C43.7765 26.425 40.058 29.5489 36.4649 32.7215C35.0392 33.9808 33.6382 35.2434 32.2384 36.52C32.7184 37.0313 33.207 37.5372 33.6934 38.043C34.9635 39.365 36.2758 40.7314 37.4821 42.1636C38.1869 43.0035 38.6452 44.2315 38.6474 45.2941C38.6506 46.4745 38.5977 47.6354 38.5274 48.7747Z" fill="#858585"/>
<path d="M29.054 54.1103C28.9751 54.1103 28.8951 54.0973 28.8162 54.0746C28.6054 54.0087 28.4303 53.8617 28.3297 53.665L24.8123 46.6939C24.6296 46.3318 24.7442 45.8897 25.0782 45.6594L28.5167 43.3051C28.707 43.1754 28.9351 43.1376 29.1383 43.1797C29.495 43.1051 29.8701 43.2781 30.0333 43.6208L33.5248 50.8491C33.7107 51.235 33.5648 51.6998 33.1886 51.9084L29.4464 54.0044C29.3275 54.0757 29.1913 54.1103 29.054 54.1103ZM26.5808 46.5966L29.3955 52.1786L31.7337 50.8685L28.9026 45.0055L26.5808 46.5966Z" fill="#858585"/>
</svg>
