<svg width="80" height="80" viewBox="0 0 80 80" fill="none" xmlns="http://www.w3.org/2000/svg">
<circle cx="40" cy="40" r="40" fill="#FF1200" fill-opacity="0.1"/>
<path d="M23.5 58H56.5V32.5H58V22H22V32.5H23.5V58ZM55 56.5H25V32.5H55V56.5ZM23.5 23.5H56.5V31H23.5V23.5Z" fill="#858585"/>
<path d="M32.5 41.5H47.5C49.1545 41.5 50.5 40.1545 50.5 38.5C50.5 36.8455 49.1545 35.5 47.5 35.5H32.5C30.8455 35.5 29.5 36.8455 29.5 38.5C29.5 40.1545 30.8455 41.5 32.5 41.5ZM32.5 37H47.5C48.3272 37 49 37.6727 49 38.5C49 39.3273 48.3272 40 47.5 40H32.5C31.6727 40 31 39.3273 31 38.5C31 37.6727 31.6727 37 32.5 37Z" fill="#858585"/>
</svg>
