<svg width="80" height="80" viewBox="0 0 80 80" fill="none" xmlns="http://www.w3.org/2000/svg">
<circle cx="40" cy="40" r="40" fill="#FF1200" fill-opacity="0.1"/>
<path d="M37.5675 44.7589H51.8454C53.0968 44.7589 54.1154 43.7407 54.1154 42.4893V36.0339H56.9417C57.3574 36.0339 57.7249 35.7714 57.8998 35.3495C58.089 34.8938 58.0044 34.3758 57.6911 34.0625L46.1959 22.4841C45.5694 21.8584 44.5685 21.8397 43.9615 22.445L32.4712 34.0821C32.1588 34.3954 32.0733 34.9054 32.2585 35.3522C32.4329 35.7732 32.8009 36.0339 33.2193 36.0339H35.2971V42.4893C35.297 43.7407 36.3157 44.7589 37.5675 44.7589ZM46.6075 43.3918H43.4177V38.1771C43.4177 38.0517 43.5201 37.9493 43.6456 37.9493H46.3798C46.5052 37.9493 46.6076 38.0517 46.6076 38.1771L46.6075 43.3918ZM52.7483 42.4893C52.7483 42.9869 52.3429 43.3918 51.8454 43.3918H47.9746V38.1771C47.9746 37.2978 47.2591 36.5822 46.3797 36.5822H43.6455C42.7661 36.5822 42.0505 37.2978 42.0505 38.1771V43.3918H37.5674C37.0694 43.3918 36.664 42.9868 36.664 42.4893V35.5605L45.0437 27.1087L52.8893 34.9543C52.8065 35.0673 52.7482 35.1995 52.7482 35.3504V42.4893H52.7483ZM44.9308 23.4089C45.0077 23.3332 45.148 23.3706 45.2281 23.4489L56.365 34.6668H54.535L46.0103 26.1421C45.4977 25.6303 44.6632 25.6303 44.1502 26.1421L35.6254 34.6668H33.8151L44.9308 23.4089Z" fill="#858585"/>
<path d="M22.866 22C22.3885 22 22 22.3881 22 22.866V57.135C22 57.6119 22.3885 58 22.866 58H28.8809C29.3584 58 29.7469 57.6119 29.7469 57.1349V22.866C29.7469 22.3881 29.3584 22 28.8809 22H22.866ZM23.3671 56.6329V23.3671H28.3797V26.557H26.3292C25.9518 26.557 25.6456 26.8632 25.6456 27.2406C25.6456 27.618 25.9518 27.9241 26.3292 27.9241H28.3798V30.2026H26.3292C25.9518 30.2026 25.6456 30.5087 25.6456 30.8862C25.6456 31.2635 25.9518 31.5697 26.3292 31.5697H28.3798V33.8482H26.3292C25.9518 33.8482 25.6456 34.1544 25.6456 34.5318C25.6456 34.9092 25.9518 35.2153 26.3292 35.2153H28.3798V37.4938H26.3292C25.9518 37.4938 25.6456 37.8 25.6456 38.1774C25.6456 38.5548 25.9518 38.8609 26.3292 38.8609H28.3798V41.1394H26.3292C25.9518 41.1394 25.6456 41.4456 25.6456 41.823C25.6456 42.2004 25.9518 42.5065 26.3292 42.5065H28.3798V44.785H26.3292C25.9518 44.785 25.6456 45.0912 25.6456 45.4686C25.6456 45.846 25.9518 46.1521 26.3292 46.1521H28.3798V48.4306H26.3292C25.9518 48.4306 25.6456 48.7368 25.6456 49.1142C25.6456 49.4916 25.9518 49.7977 26.3292 49.7977H28.3798V52.0762H26.3292C25.9518 52.0762 25.6456 52.3824 25.6456 52.7598C25.6456 53.1372 25.9518 53.4433 26.3292 53.4433H28.3798V56.6332H23.3671V56.6329Z" fill="#858585"/>
<path d="M57.0431 51.1646H39.024C38.8282 51.1646 33.4662 53.7269 33.4662 53.7269C33.1396 53.8898 32.9366 54.2174 32.9366 54.5831C32.9366 54.948 33.1396 55.2756 33.4658 55.4384C33.4658 55.4384 38.8286 57.9999 39.024 57.9999H57.0431C57.5705 57.9999 57.9999 57.5709 57.9999 57.0431V52.1222C57.9999 51.5945 57.5705 51.1646 57.0431 51.1646ZM34.811 54.5831L38.0668 52.9544V56.211L34.811 54.5831ZM39.4339 52.5317H53.2872V56.633H39.4339V52.5317ZM56.6328 56.6329H54.6542V52.5316H56.6328V56.6329Z" fill="#858585"/>
</svg>
