<svg width="80" height="80" viewBox="0 0 80 80" fill="none" xmlns="http://www.w3.org/2000/svg">
<circle cx="40" cy="40" r="40" fill="#FF1200" fill-opacity="0.1"/>
<path d="M52.1433 48.9996H50.5074C50.28 48.9916 50.0651 48.8937 49.9099 48.7274C49.7546 48.5611 49.6717 48.34 49.6793 48.1126V40.2068C49.6717 39.9795 49.7546 39.7584 49.9099 39.5921C50.0651 39.4258 50.28 39.3279 50.5074 39.3198H61.6752C61.7197 39.3214 61.7634 39.3318 61.8038 39.3504C61.8442 39.369 61.8805 39.3954 61.9107 39.4282C61.9408 39.4609 61.9641 39.4993 61.9793 39.5411C61.9945 39.583 62.0012 39.6274 61.999 39.6718V47.2397C62.014 47.6908 61.8495 48.1294 61.5415 48.4593C61.2335 48.7892 60.8072 48.9836 60.3561 48.9996H57.8922" stroke="#999999" stroke-width="2" stroke-miterlimit="10"/>
<path d="M25.0399 27H47.9194C48.3862 27 48.8338 27.1854 49.1639 27.5155C49.4939 27.8455 49.6793 28.2932 49.6793 28.76V41.9597H23.2799V28.76C23.2799 28.2932 23.4653 27.8455 23.7954 27.5155C24.1254 27.1854 24.5731 27 25.0399 27Z" stroke="#999999" stroke-width="2" stroke-miterlimit="10"/>
<path d="M18 34.0398H31.1997" stroke="#999999" stroke-width="2" stroke-linecap="round" stroke-linejoin="round"/>
<path d="M18.8799 36.6797H32.0796" stroke="#999999" stroke-width="2" stroke-linecap="round" stroke-linejoin="round"/>
<path d="M21.5199 39.3198H35.5996" stroke="#999999" stroke-width="2" stroke-linecap="round" stroke-linejoin="round"/>
<path d="M23.2799 45.4795H25.9199" stroke="#999999" stroke-width="2" stroke-linecap="round" stroke-linejoin="round"/>
<path d="M49.6792 45.4795H41.7594" stroke="#999999" stroke-width="2" stroke-linecap="round" stroke-linejoin="round"/>
<path d="M52.3191 41.9597H53.1991" stroke="#999999" stroke-width="2" stroke-linecap="round" stroke-linejoin="round"/>
<path d="M55.399 53.3996C57.1 53.3996 58.479 52.0207 58.479 50.3197C58.479 48.6187 57.1 47.2397 55.399 47.2397C53.698 47.2397 52.3191 48.6187 52.3191 50.3197C52.3191 52.0207 53.698 53.3996 55.399 53.3996Z" stroke="#999999" stroke-width="2" stroke-miterlimit="10"/>
<path d="M61.9831 39.0452C61.9952 39.0767 61.9992 39.1108 61.9948 39.1442C61.9903 39.1777 61.9776 39.2095 61.9578 39.2367C61.9379 39.264 61.9116 39.2859 61.8811 39.3004C61.8506 39.3149 61.817 39.3216 61.7833 39.3198H49.9916C49.9086 39.3193 49.8291 39.286 49.7706 39.2271C49.7121 39.1683 49.6792 39.0886 49.6792 39.0056V33.4758C49.6794 33.392 49.7129 33.3116 49.7723 33.2524C49.8317 33.1932 49.9121 33.1599 49.996 33.1599H59.0492C59.1651 33.16 59.2784 33.1938 59.3753 33.2573C59.4722 33.3207 59.5485 33.411 59.5948 33.5172L61.9831 39.0452Z" stroke="#999999" stroke-width="2" stroke-miterlimit="10"/>
<path d="M29.8796 53.3996C31.5806 53.3996 32.9596 52.0207 32.9596 50.3197C32.9596 48.6187 31.5806 47.2397 29.8796 47.2397C28.1786 47.2397 26.7997 48.6187 26.7997 50.3197C26.7997 52.0207 28.1786 53.3996 29.8796 53.3996Z" stroke="#999999" stroke-width="2" stroke-miterlimit="10"/>
<path d="M26.7998 48.9996H25.0399C24.5731 48.9996 24.1254 48.8141 23.7954 48.4841C23.4653 48.154 23.2799 47.7064 23.2799 47.2396V41.9597H49.6793V48.9996H32.9597" stroke="#999999" stroke-width="2" stroke-miterlimit="10"/>
<path d="M58.4791 45.4795H61.9991" stroke="#999999" stroke-width="2" stroke-linecap="round" stroke-linejoin="round"/>
</svg>
