<svg width="80" height="80" viewBox="0 0 80 80" fill="none" xmlns="http://www.w3.org/2000/svg">
<circle cx="40" cy="40" r="40" fill="#FF1200" fill-opacity="0.1"/>
<path d="M63.9956 25.6486H51.9144C51.7945 25.6473 51.6782 25.6074 51.5828 25.5348L48.2663 22.997C48.0877 22.8616 47.8698 22.7883 47.6457 22.7883H43.9692L43.2065 21.1376C43.1886 21.0961 43.1588 21.0608 43.1208 21.0363C43.0828 21.0118 43.0384 20.9992 42.9933 21H22.4363C22.3966 21.0004 22.3577 21.0102 22.3226 21.0285C21.2789 21.5756 20.4126 22.4092 19.8252 23.4317C19.2378 24.4541 18.9537 25.623 19.0061 26.8013C19.2004 30.1692 22.1804 31.7962 22.3226 31.8626C22.3577 31.8809 22.3966 31.8907 22.4363 31.891H23.8907V32.3654C23.8917 32.4092 23.9049 32.4519 23.9286 32.4887C24.4846 33.3919 24.888 34.3808 25.1225 35.4154C26.0038 39.3572 24.0613 42.7536 23.1801 44.0343C23.1555 44.0743 23.1424 44.1202 23.1422 44.1671V44.6415H22.0715C21.6592 44.6324 21.2529 44.7414 20.9004 44.9557C20.5478 45.17 20.2638 45.4806 20.0816 45.851C19.9964 46.0327 19.9389 46.2262 19.911 46.425C19.8432 46.9167 19.9399 47.4171 20.1858 47.848C20.3834 48.1716 20.6625 48.4375 20.9952 48.619C21.3278 48.8005 21.7022 48.8912 22.0809 48.8821H31.798C32.1612 48.8753 32.5157 48.9935 32.8024 49.2169C33.089 49.4403 33.2905 49.7554 33.3731 50.1095C33.4557 50.4637 33.4145 50.8355 33.2563 51.1629C33.0981 51.4903 32.8325 51.7535 32.5039 51.9084C32.2881 52.0047 32.0531 52.0502 31.817 52.0413H24.8004C24.4119 52.0298 24.0277 52.1244 23.6888 52.3149C23.35 52.5055 23.0693 52.7847 22.8769 53.1228C22.7008 53.4555 22.6127 53.8278 22.621 54.2043C22.6283 54.483 22.691 54.7574 22.8055 55.0115C22.9199 55.2656 23.0839 55.4943 23.2877 55.6843C23.4915 55.8742 23.7311 56.0215 23.9925 56.1176C24.2538 56.2137 24.5317 56.2567 24.8099 56.244H37.4738V56.5665C37.4738 57.0697 37.6735 57.5524 38.0289 57.9082C38.3843 58.264 38.8663 58.4639 39.3689 58.4639H40.3164C40.3793 58.4639 40.4395 58.4389 40.4839 58.3944C40.5284 58.35 40.5533 58.2896 40.5533 58.2267V57.4204H42.0647V56.946H40.5391V55.2194H42.0505V54.745H40.5391V53.9719C40.5391 53.909 40.5142 53.8486 40.4697 53.8041C40.4253 53.7597 40.3651 53.7347 40.3022 53.7347H39.3547C38.8521 53.7347 38.3701 53.9346 38.0147 54.2904C37.6593 54.6462 37.4596 55.1288 37.4596 55.6321V55.7791H24.8099C24.4836 55.7898 24.1612 55.7059 23.8813 55.5376C23.6015 55.3693 23.3761 55.1238 23.2322 54.8304C23.1492 54.635 23.1026 54.426 23.0948 54.2138C23.0846 53.9874 23.1218 53.7615 23.204 53.5504C23.2863 53.3394 23.4118 53.1479 23.5725 52.9884C23.7332 52.8288 23.9255 52.7048 24.1369 52.6242C24.3484 52.5436 24.5744 52.5082 24.8004 52.5204H31.817C32.1257 52.5288 32.4322 52.4654 32.7124 52.3354C33.0515 52.1739 33.3402 51.9229 33.5475 51.6094C33.7548 51.296 33.8728 50.9319 33.8889 50.5563C33.905 50.1806 33.8185 49.8078 33.6387 49.4777C33.459 49.1476 33.1928 48.8728 32.8687 48.6829C32.5439 48.4949 32.1731 48.4012 31.798 48.4125H22.0762C21.7803 48.4195 21.4878 48.3482 21.2283 48.2057C20.9687 48.0633 20.7513 47.8548 20.598 47.6014C20.4023 47.2614 20.324 46.8662 20.3753 46.4772C20.4 46.3249 20.4446 46.1766 20.508 46.036C20.6509 45.7449 20.8741 45.5009 21.1511 45.3327C21.4282 45.1646 21.7476 45.0795 22.0715 45.0873H23.1422V45.5617C23.1422 45.6246 23.1671 45.6849 23.2116 45.7294C23.256 45.7739 23.3162 45.7989 23.3791 45.7989H32.8545C32.9173 45.7989 32.9776 45.7739 33.022 45.7294C33.0664 45.6849 33.0914 45.6246 33.0914 45.5617V44.8407C33.0911 44.7927 33.0765 44.7458 33.0495 44.7061C33.0225 44.6664 32.9843 44.6356 32.9398 44.6177L30.6657 43.7829C29.8318 39.2007 30.1919 35.7617 31.5706 35.2115C31.9034 35.0947 32.2659 35.0947 32.5987 35.2115C32.6432 35.2263 32.6913 35.227 32.7363 35.2134C32.7812 35.1998 32.8209 35.1726 32.8498 35.1356C32.8796 35.0997 32.8983 35.0558 32.9033 35.0094C32.9084 34.963 32.8996 34.9161 32.8782 34.8747C32.731 34.6009 32.6397 34.3005 32.6096 33.9911C32.5795 33.6816 32.6112 33.3692 32.7029 33.0722C32.7832 32.8372 32.9052 32.6186 33.063 32.427C33.0968 32.3837 33.1151 32.3303 33.1151 32.2753V31.8721H40.6955V33.2002H39.1936C39.1312 33.2014 39.0716 33.2268 39.0274 33.271C38.9833 33.3153 38.9579 33.3749 38.9567 33.4374V34.7181C38.9579 34.7807 38.9833 34.8403 39.0274 34.8845C39.0716 34.9287 39.1312 34.9541 39.1936 34.9553H40.0653V46.795C40.0661 46.8275 40.0736 46.8595 40.0875 46.8889C40.1014 46.9184 40.1213 46.9445 40.1459 46.9658H39.1983C39.1359 46.967 39.0763 46.9923 39.0322 47.0366C38.988 47.0808 38.9627 47.1404 38.9615 47.2029V48.4837C38.9627 48.5462 38.988 48.6058 39.0322 48.65C39.0763 48.6942 39.1359 48.7196 39.1983 48.7208H43.8224C43.8848 48.7196 43.9444 48.6942 43.9885 48.65C44.0327 48.6058 44.058 48.5462 44.0592 48.4837V47.2029C44.058 47.1404 44.0327 47.0808 43.9885 47.0366C43.9444 46.9923 43.8848 46.967 43.8224 46.9658H43.1307C43.1546 46.9443 43.1738 46.918 43.1869 46.8885C43.1999 46.8591 43.2066 46.8272 43.2065 46.795V34.9695H43.8176C43.8801 34.9683 43.9396 34.9429 43.9838 34.8987C44.0279 34.8545 44.0533 34.7949 44.0545 34.7324V33.4516C44.0533 33.3891 44.0279 33.3295 43.9838 33.2853C43.9396 33.2411 43.8801 33.2157 43.8176 33.2145H42.2873V31.8863H42.9601C43.0008 31.8856 43.0407 31.8749 43.0763 31.855C43.1118 31.8352 43.1419 31.8068 43.1638 31.7724L43.9408 30.5154H47.6315C47.8556 30.5154 48.0735 30.4421 48.2521 30.3067L51.5685 27.769C51.664 27.6964 51.7803 27.6565 51.9002 27.6551H63.9956C64.262 27.6551 64.5175 27.5492 64.7058 27.3606C64.8942 27.172 65 26.9162 65 26.6495C65 26.3828 64.8942 26.127 64.7058 25.9384C64.5175 25.7498 64.262 25.6439 63.9956 25.6439V25.6486ZM37.9381 55.6083C37.9381 55.2309 38.0878 54.869 38.3544 54.6021C38.6209 54.3352 38.9825 54.1853 39.3594 54.1853H40.0559V57.9279H39.3689C38.9919 57.9279 38.6304 57.778 38.3639 57.5111C38.0973 57.2442 37.9476 56.8823 37.9476 56.5049L37.9381 55.6083ZM43.5807 48.2512H39.4305V47.4449H43.5807V48.2512ZM23.616 31.4167V30.0648C23.6153 30.0174 23.6006 29.9713 23.5735 29.9324C23.5465 29.8935 23.5085 29.8637 23.4643 29.8466C21.5361 29.0971 20.3801 27.1239 20.887 25.4447C21.394 23.7655 23.3554 23.2058 23.4407 23.1868C23.4915 23.1731 23.5364 23.1428 23.5681 23.1007C23.5999 23.0586 23.6167 23.0071 23.616 22.9543V21.4744H39.909V31.4357L23.616 31.4167ZM40.3828 21.4554H42.7516V31.4167H40.3828V21.4554ZM43.2254 22.295L43.576 23.0587V30.2261L43.2017 30.8238L43.2254 22.295ZM19.4989 26.7776C19.4493 25.7006 19.7045 24.6315 20.2351 23.6933C20.7656 22.7551 21.55 21.986 22.4978 21.4744H23.1422V22.7836C22.5737 22.9733 20.9297 23.6564 20.4322 25.3071C19.8637 27.2045 21.0481 29.339 23.1422 30.2261V31.4167H22.4978C22.1141 31.1748 19.6694 29.6853 19.4989 26.7776ZM25.5821 35.2874C25.3419 34.2239 24.9307 33.2066 24.3645 32.2753V31.891H26.8044L25.9043 43.7212H23.9334C24.9188 42.1132 26.4017 38.9303 25.5821 35.2874ZM32.6413 45.0067V45.3482H23.6396V44.2193H26.1127C26.1727 44.2206 26.2309 44.1987 26.2751 44.158C26.3192 44.1173 26.346 44.0611 26.3496 44.0011L27.2972 31.9148H28.0931L27.2782 43.8493C27.2761 43.9135 27.298 43.9761 27.3398 44.0248C27.384 44.0729 27.4452 44.1018 27.5104 44.1054L30.4335 44.1956L32.6413 45.0067ZM32.6413 32.1994C32.4745 32.4193 32.3434 32.6642 32.2528 32.9251C32.0749 33.4894 32.0899 34.0969 32.2955 34.6517C31.9992 34.6121 31.6977 34.648 31.419 34.7561C29.7939 35.4107 29.3344 38.826 30.1967 43.6975L27.7709 43.6216L28.5479 31.8768H32.6413V32.1994ZM42.7327 46.5436H40.5391V34.9695H42.7327V46.5436ZM43.5807 34.4952H39.4305V33.6888H43.5807V34.4952ZM41.8136 33.2145H41.174V31.8863H41.8136V33.2145ZM47.9726 29.9272C47.8757 30.0005 47.7577 30.0404 47.6362 30.0411H44.0545V23.2627H47.641C47.7624 23.2634 47.8804 23.3033 47.9773 23.3765L49.8724 24.7996V28.4615L47.9726 29.9272ZM63.9956 27.1855H51.9144C51.6896 27.1858 51.4713 27.2609 51.2938 27.399L50.3462 28.1247V25.1838L51.2938 25.9095C51.4713 26.0476 51.6896 26.1227 51.9144 26.123H63.9956C64.1363 26.123 64.2713 26.179 64.3708 26.2786C64.4703 26.3782 64.5262 26.5133 64.5262 26.6542C64.5262 26.7952 64.4703 26.9303 64.3708 27.0299C64.2713 27.1295 64.1363 27.1855 63.9956 27.1855Z" fill="#858585"/>
<path d="M23.706 25.3594H21.5551V25.8336H23.706V25.3594Z" fill="#858585"/>
<path d="M23.706 23.7561H22.4695V24.2303H23.706V23.7561Z" fill="#858585"/>
<path d="M23.706 27.0576H21.5551V27.5318H23.706V27.0576Z" fill="#858585"/>
<path d="M23.706 28.6604H22.4695V29.1346H23.706V28.6604Z" fill="#858585"/>
<path d="M39.0419 25.6487H24.7435C24.6807 25.6487 24.6204 25.6737 24.576 25.7181C24.5315 25.7626 24.5066 25.823 24.5066 25.8859V29.0071C24.5066 29.07 24.5315 29.1303 24.576 29.1748C24.6204 29.2192 24.6807 29.2442 24.7435 29.2442H39.0419C39.1048 29.2442 39.165 29.2192 39.2094 29.1748C39.2539 29.1303 39.2788 29.07 39.2788 29.0071V25.8859C39.2788 25.823 39.2539 25.7626 39.2094 25.7181C39.165 25.6737 39.1048 25.6487 39.0419 25.6487ZM38.8051 28.7699H24.9804V26.123H38.8051V28.7699Z" fill="#858585"/>
<path d="M39.0419 23.4475H24.7435C24.6807 23.4475 24.6204 23.4725 24.576 23.517C24.5315 23.5614 24.5066 23.6217 24.5066 23.6846V24.7042C24.5066 24.7671 24.5315 24.8274 24.576 24.8719C24.6204 24.9163 24.6807 24.9413 24.7435 24.9413H39.0419C39.1048 24.9413 39.165 24.9163 39.2094 24.8719C39.2539 24.8274 39.2788 24.7671 39.2788 24.7042V23.6846C39.2788 23.6217 39.2539 23.5614 39.2094 23.517C39.165 23.4725 39.1048 23.4475 39.0419 23.4475ZM38.8051 24.4671H24.9804V23.9217H38.8051V24.4671Z" fill="#858585"/>
</svg>
