<svg width="36" height="40" viewBox="0 0 36 40" fill="none" xmlns="http://www.w3.org/2000/svg">
<path fill-rule="evenodd" clip-rule="evenodd" d="M36 11.25V35C36 36.3261 35.4582 37.5979 34.4937 38.5355C33.5292 39.4732 32.2211 40 30.8571 40H28.2857V37.5H30.8571C31.5391 37.5 32.1932 37.2366 32.6754 36.7678C33.1576 36.2989 33.4286 35.663 33.4286 35V11.25H28.2857C27.2627 11.25 26.2817 10.8549 25.5583 10.1517C24.8349 9.44839 24.4286 8.49456 24.4286 7.5V2.5H10.2857C9.60373 2.5 8.94968 2.76339 8.46744 3.23223C7.9852 3.70107 7.71429 4.33696 7.71429 5V27.5H5.14286V5C5.14286 3.67392 5.68469 2.40215 6.64916 1.46447C7.61364 0.526784 8.92174 0 10.2857 0L24.4286 0L36 11.25ZM4.11429 29.625H0V39.6225H2.034V36.2675H4.09886C4.83686 36.2675 5.46429 36.125 5.98114 35.835C6.50314 35.5425 6.90171 35.1475 7.17171 34.65C7.45197 34.1279 7.59424 33.5463 7.58571 32.9575C7.58571 32.3325 7.44943 31.7675 7.17943 31.265C6.91087 30.7655 6.50028 30.3515 5.99657 30.0725C5.48229 29.7725 4.85743 29.625 4.11429 29.625ZM5.51571 32.9575C5.52498 33.2869 5.44987 33.6133 5.29714 33.9075C5.16012 34.1636 4.94683 34.3736 4.68514 34.51C4.3858 34.654 4.05469 34.7244 3.72086 34.715H2.02629V31.2H3.72343C4.284 31.2 4.72371 31.35 5.04 31.6525C5.35629 31.9575 5.51571 32.3925 5.51571 32.9575ZM8.64514 29.625V39.6225H12.3994C13.4306 39.6225 14.2869 39.4225 14.9657 39.03C15.6527 38.6304 16.1891 38.0265 16.4957 37.3075C16.83 36.5575 16.9997 35.6525 16.9997 34.5975C16.9997 33.5475 16.8326 32.6525 16.4957 31.91C16.1928 31.1993 15.6614 30.6029 14.9811 30.21C14.3023 29.82 13.4409 29.625 12.3969 29.625H8.64514ZM10.6791 31.2375H12.1269C12.7646 31.2375 13.284 31.3625 13.6929 31.6175C14.1172 31.8873 14.4374 32.2866 14.6031 32.7525C14.8063 33.255 14.9066 33.8825 14.9066 34.635C14.9145 35.1336 14.8558 35.6311 14.7317 36.115C14.6401 36.4966 14.4685 36.8558 14.2277 37.17C14.004 37.4504 13.7076 37.6678 13.3689 37.8C12.972 37.9444 12.5505 38.0139 12.1269 38.005H10.6791V31.2375ZM20.304 35.645V39.6225H18.2726V29.625H24.8246V31.2575H20.304V34.05H24.4337V35.645H20.304Z" fill="white"/>
</svg>
