<svg width="192" height="21" viewBox="0 0 192 21" fill="none" xmlns="http://www.w3.org/2000/svg">
<path d="M1.302 12.2V8.664H8.244C9.42267 8.664 10.4713 8.90667 11.39 9.392C12.326 9.86 13.0627 10.5187 13.6 11.368C14.1547 12.2 14.432 13.1793 14.432 14.306C14.432 15.4153 14.1547 16.4033 13.6 17.27C13.0627 18.1193 12.326 18.7867 11.39 19.272C10.4713 19.7573 9.42267 20 8.244 20H1.302V16.386H7.282C7.854 16.386 8.33933 16.3167 8.738 16.178C9.13667 16.022 9.44 15.788 9.648 15.476C9.856 15.164 9.96 14.774 9.96 14.306C9.96 13.8207 9.856 13.4307 9.648 13.136C9.44 12.824 9.13667 12.59 8.738 12.434C8.33933 12.278 7.854 12.2 7.282 12.2H1.302ZM0.0800001 1.8H13.054V5.414H4.552V20H0.0800001V1.8ZM21.0068 10.9C21.0068 11.9747 21.2148 12.928 21.6308 13.76C22.0641 14.5747 22.6621 15.216 23.4248 15.684C24.2048 16.152 25.1148 16.386 26.1548 16.386C27.1774 16.386 28.0701 16.152 28.8327 15.684C29.6128 15.216 30.2108 14.5747 30.6268 13.76C31.0601 12.928 31.2768 11.9747 31.2768 10.9C31.2768 9.82533 31.0688 8.88067 30.6528 8.066C30.2368 7.234 29.6474 6.584 28.8848 6.116C28.1221 5.648 27.2121 5.414 26.1548 5.414C25.1148 5.414 24.2048 5.648 23.4248 6.116C22.6621 6.584 22.0641 7.234 21.6308 8.066C21.2148 8.88067 21.0068 9.82533 21.0068 10.9ZM16.3528 10.9C16.3528 9.496 16.5954 8.21333 17.0808 7.052C17.5834 5.89067 18.2768 4.88533 19.1608 4.036C20.0448 3.18667 21.0848 2.53667 22.2808 2.086C23.4768 1.618 24.7681 1.384 26.1548 1.384C27.5588 1.384 28.8501 1.618 30.0288 2.086C31.2248 2.53667 32.2648 3.18667 33.1488 4.036C34.0328 4.88533 34.7174 5.89067 35.2028 7.052C35.6881 8.21333 35.9308 9.496 35.9308 10.9C35.9308 12.304 35.6881 13.5953 35.2028 14.774C34.7348 15.9527 34.0588 16.9753 33.1748 17.842C32.3081 18.7087 31.2768 19.3847 30.0808 19.87C28.8848 20.338 27.5761 20.572 26.1548 20.572C24.7161 20.572 23.3988 20.338 22.2028 19.87C21.0068 19.3847 19.9668 18.7087 19.0828 17.842C18.2161 16.9753 17.5401 15.9527 17.0548 14.774C16.5868 13.5953 16.3528 12.304 16.3528 10.9ZM38.9023 1.8H49.7183V5.726H43.2963V20H38.9023V1.8ZM54.8106 20V16.386H63.9886V20H54.8106ZM54.8106 5.414V1.8H63.9886V5.414H54.8106ZM54.8106 12.2V8.664H63.4686V12.2H54.8106ZM51.8986 1.8H56.1106V20H51.8986V1.8ZM72.2446 10.718L71.1526 20H66.5246L69.4626 0.89L77.2106 11.992L84.9846 0.89L87.9226 20H83.2946L82.2026 10.718L77.2106 18.31L72.2446 10.718ZM94.368 16.49L94.68 13.136H103.702L103.988 16.49H94.368ZM99.126 8.482L96.578 14.358L96.786 15.32L94.524 20H89.558L99.126 0.656L108.72 20H103.728L101.544 15.502L101.7 14.384L99.126 8.482ZM111.232 18.232C111.232 17.5733 111.466 17.01 111.934 16.542C112.402 16.074 112.983 15.84 113.676 15.84C114.404 15.84 114.994 16.074 115.444 16.542C115.895 17.01 116.12 17.5733 116.12 18.232C116.12 18.8907 115.895 19.454 115.444 19.922C114.994 20.39 114.404 20.624 113.676 20.624C112.983 20.624 112.402 20.39 111.934 19.922C111.466 19.454 111.232 18.8907 111.232 18.232ZM121.795 13.604C122.159 14.2627 122.566 14.8347 123.017 15.32C123.485 15.8053 123.988 16.178 124.525 16.438C125.08 16.698 125.66 16.828 126.267 16.828C126.908 16.828 127.437 16.672 127.853 16.36C128.269 16.0307 128.477 15.5887 128.477 15.034C128.477 14.566 128.356 14.1933 128.113 13.916C127.87 13.6213 127.48 13.344 126.943 13.084C126.406 12.824 125.695 12.5293 124.811 12.2C124.378 12.044 123.875 11.8273 123.303 11.55C122.748 11.2727 122.22 10.9173 121.717 10.484C121.214 10.0333 120.798 9.496 120.469 8.872C120.14 8.23067 119.975 7.45933 119.975 6.558C119.975 5.48333 120.252 4.556 120.807 3.776C121.379 2.996 122.142 2.40667 123.095 2.008C124.066 1.592 125.14 1.384 126.319 1.384C127.532 1.384 128.581 1.58333 129.465 1.982C130.366 2.38067 131.112 2.88333 131.701 3.49C132.29 4.09667 132.741 4.712 133.053 5.336L129.699 7.208C129.439 6.77467 129.136 6.402 128.789 6.09C128.46 5.76067 128.087 5.50933 127.671 5.336C127.272 5.14533 126.839 5.05 126.371 5.05C125.747 5.05 125.27 5.18867 124.941 5.466C124.612 5.726 124.447 6.05533 124.447 6.454C124.447 6.87 124.603 7.234 124.915 7.546C125.244 7.858 125.704 8.144 126.293 8.404C126.9 8.664 127.628 8.94133 128.477 9.236C129.118 9.47867 129.716 9.76467 130.271 10.094C130.826 10.406 131.311 10.7873 131.727 11.238C132.16 11.6887 132.498 12.2087 132.741 12.798C132.984 13.3873 133.105 14.0633 133.105 14.826C133.105 15.7447 132.914 16.568 132.533 17.296C132.169 18.0067 131.666 18.6047 131.025 19.09C130.401 19.5753 129.682 19.9393 128.867 20.182C128.07 20.442 127.246 20.572 126.397 20.572C125.218 20.572 124.118 20.364 123.095 19.948C122.09 19.5147 121.214 18.934 120.469 18.206C119.724 17.478 119.143 16.6807 118.727 15.814L121.795 13.604ZM137.265 12.382V8.43H151.045V12.382H137.265ZM148.263 1.8H152.657V20H148.263V1.8ZM136.043 1.8H140.437V20H136.043V1.8ZM160.097 10.9C160.097 11.9747 160.305 12.928 160.721 13.76C161.154 14.5747 161.752 15.216 162.515 15.684C163.295 16.152 164.205 16.386 165.245 16.386C166.267 16.386 167.16 16.152 167.923 15.684C168.703 15.216 169.301 14.5747 169.717 13.76C170.15 12.928 170.367 11.9747 170.367 10.9C170.367 9.82533 170.159 8.88067 169.743 8.066C169.327 7.234 168.737 6.584 167.975 6.116C167.212 5.648 166.302 5.414 165.245 5.414C164.205 5.414 163.295 5.648 162.515 6.116C161.752 6.584 161.154 7.234 160.721 8.066C160.305 8.88067 160.097 9.82533 160.097 10.9ZM155.443 10.9C155.443 9.496 155.685 8.21333 156.171 7.052C156.673 5.89067 157.367 4.88533 158.251 4.036C159.135 3.18667 160.175 2.53667 161.371 2.086C162.567 1.618 163.858 1.384 165.245 1.384C166.649 1.384 167.94 1.618 169.119 2.086C170.315 2.53667 171.355 3.18667 172.239 4.036C173.123 4.88533 173.807 5.89067 174.293 7.052C174.778 8.21333 175.021 9.496 175.021 10.9C175.021 12.304 174.778 13.5953 174.293 14.774C173.825 15.9527 173.149 16.9753 172.265 17.842C171.398 18.7087 170.367 19.3847 169.171 19.87C167.975 20.338 166.666 20.572 165.245 20.572C163.806 20.572 162.489 20.338 161.293 19.87C160.097 19.3847 159.057 18.7087 158.173 17.842C157.306 16.9753 156.63 15.9527 156.145 14.774C155.677 13.5953 155.443 12.304 155.443 10.9ZM177.836 1.8H182.23V20H177.836V1.8ZM180.592 5.414V1.8H184.154C185.697 1.8 186.988 2.04267 188.028 2.528C189.085 2.996 189.883 3.672 190.42 4.556C190.957 5.44 191.226 6.506 191.226 7.754C191.226 8.96733 190.957 10.0247 190.42 10.926C189.883 11.81 189.085 12.4947 188.028 12.98C186.988 13.448 185.697 13.682 184.154 13.682H180.592V10.068H184.154C185.038 10.068 185.731 9.86867 186.234 9.47C186.737 9.07133 186.988 8.49933 186.988 7.754C186.988 6.99133 186.737 6.41067 186.234 6.012C185.731 5.61333 185.038 5.414 184.154 5.414H180.592Z" fill="black"/>
</svg>
